# xmcd
#
# Track frame offsets: 
#        150
#        16637
#        33147
#        58357
#        76044
#
# Disc length: 1330 seconds
#
# Revision: 0
# Processed by: cddbd v1.5.2PL0 Copyright (c) Steve Scherf et al.
# Submitted via: ExactAudioCopy v1.0b1
#
DISCID=2b053005
DTITLE=Fred Chapellier - Electric Communion [disk2]
DYEAR=2014
DGENRE=Blues
TTITLE0=Ain't No Love in the Heart of the City
TTITLE1=Bet on the Blues
TTITLE2=Beyond The Moon
TTITLE3=Under the Influence
TTITLE4=Better Off Lonely
EXTD=
EXTT0=
EXTT1=
EXTT2=
EXTT3=
EXTT4=
PLAYORDER=
